<mxfile host="app.diagrams.net" modified="2024-05-21T03:57:40.773Z" agent="Mozilla/5.0 (Macintosh; Intel Mac OS X 10_15_7) AppleWebKit/605.1.15 (KHTML, like Gecko) Version/17.4.1 Safari/605.1.15" etag="uemvFFCW8lvnfOjFKsYl" version="24.4.0" type="github">
  <diagram name="Page-1" id="CuX29IQ0Gqyv7H_dg3Q3">
    <mxGraphModel dx="1219" dy="741" grid="1" gridSize="10" guides="1" tooltips="1" connect="1" arrows="1" fold="1" page="1" pageScale="1" pageWidth="850" pageHeight="1100" math="0" shadow="0">
      <root>
        <mxCell id="0" />
        <mxCell id="1" parent="0" />
        <mxCell id="4lxgX_QBaO9KYiXGHMeb-18" value="&lt;div style=&quot;font-size: 19px; text-align: left;&quot;&gt;&lt;br&gt;&lt;/div&gt;&lt;div style=&quot;font-size: 19px; text-align: left;&quot;&gt;&lt;br&gt;&lt;/div&gt;&lt;div style=&quot;font-size: 19px; text-align: left;&quot;&gt;Total Income in 3 mths:&lt;/div&gt;&lt;div style=&quot;font-size: 19px; text-align: left;&quot;&gt;&lt;br&gt;&lt;/div&gt;&lt;div style=&quot;font-size: 19px; text-align: left;&quot;&gt;$ 43000 * 3 = $129000&amp;nbsp;&lt;/div&gt;&lt;div style=&quot;font-size: 19px; text-align: left;&quot;&gt;$ 129000 + $ 30000 = $ 159000&lt;/div&gt;" style="rounded=0;whiteSpace=wrap;html=1;" parent="1" vertex="1">
          <mxGeometry x="70" y="530" width="390" height="270" as="geometry" />
        </mxCell>
        <mxCell id="4lxgX_QBaO9KYiXGHMeb-3" style="edgeStyle=orthogonalEdgeStyle;rounded=0;orthogonalLoop=1;jettySize=auto;html=1;exitX=0.5;exitY=1;exitDx=0;exitDy=0;" parent="1" edge="1">
          <mxGeometry relative="1" as="geometry">
            <mxPoint x="265" y="420" as="sourcePoint" />
            <mxPoint x="265" y="420" as="targetPoint" />
          </mxGeometry>
        </mxCell>
        <mxCell id="4lxgX_QBaO9KYiXGHMeb-6" value="" style="rounded=0;whiteSpace=wrap;html=1;" parent="1" vertex="1">
          <mxGeometry x="70" y="100" width="390" height="420" as="geometry" />
        </mxCell>
        <mxCell id="4lxgX_QBaO9KYiXGHMeb-7" value="" style="rounded=0;whiteSpace=wrap;html=1;" parent="1" vertex="1">
          <mxGeometry x="480" y="100" width="390" height="420" as="geometry" />
        </mxCell>
        <mxCell id="4lxgX_QBaO9KYiXGHMeb-8" value="Money: 43000/ mth&lt;div style=&quot;font-size: 19px;&quot;&gt;Learning: Backend framework&lt;/div&gt;&lt;div style=&quot;font-size: 19px;&quot;&gt;Feeling: Stable, Chill, Feel&lt;/div&gt;&lt;div style=&quot;font-size: 19px;&quot;&gt;Future1: FindJob-&amp;gt; front+backend&lt;/div&gt;&lt;div style=&quot;font-size: 19px;&quot;&gt;Future2: SaveMoney-&amp;gt; WorkSchool&lt;br&gt;&lt;/div&gt;&lt;div style=&quot;font-size: 19px;&quot;&gt;&lt;br&gt;&lt;/div&gt;&lt;div style=&quot;font-size: 19px;&quot;&gt;Replacement:&amp;nbsp;&lt;/div&gt;&lt;div style=&quot;font-size: 19px;&quot;&gt;Self-learning during the slow pace&lt;/div&gt;&lt;div style=&quot;font-size: 19px;&quot;&gt;Which is better option tbh!&lt;/div&gt;&lt;div style=&quot;font-size: 19px;&quot;&gt;September can get 30000 bonus grn&lt;/div&gt;" style="text;html=1;align=left;verticalAlign=middle;whiteSpace=wrap;rounded=0;fontSize=19;" parent="1" vertex="1">
          <mxGeometry x="110" y="180" width="337" height="360" as="geometry" />
        </mxCell>
        <mxCell id="4lxgX_QBaO9KYiXGHMeb-9" value="Money: 10000-20000/ mth&lt;div style=&quot;font-size: 19px;&quot;&gt;Learning: Frontend + Backend&lt;/div&gt;&lt;div style=&quot;font-size: 19px;&quot;&gt;Feeling: Stressed, Nervous&lt;/div&gt;&lt;div style=&quot;font-size: 19px;&quot;&gt;Future: KKDay enrolled&amp;nbsp;&lt;/div&gt;&lt;div style=&quot;font-size: 19px;&quot;&gt;&lt;br&gt;&lt;/div&gt;&lt;div style=&quot;font-size: 19px;&quot;&gt;Thread:&amp;nbsp;&lt;/div&gt;&lt;div style=&quot;font-size: 19px;&quot;&gt;Work PT Weeknd all day&lt;/div&gt;&lt;div style=&quot;font-size: 19px;&quot;&gt;Headache for money&amp;nbsp;&lt;/div&gt;&lt;div style=&quot;font-size: 19px;&quot;&gt;Another half year be so poor&lt;/div&gt;" style="text;html=1;align=left;verticalAlign=middle;whiteSpace=wrap;rounded=0;fontSize=19;" parent="1" vertex="1">
          <mxGeometry x="540" y="220" width="320" height="260" as="geometry" />
        </mxCell>
        <mxCell id="4lxgX_QBaO9KYiXGHMeb-13" value="MONEY" style="shape=cube;whiteSpace=wrap;html=1;boundedLbl=1;backgroundOutline=1;darkOpacity=0.05;darkOpacity2=0.1;fontStyle=1;fontSize=17;" parent="1" vertex="1">
          <mxGeometry x="130" y="540" width="270" height="80" as="geometry" />
        </mxCell>
        <mxCell id="4lxgX_QBaO9KYiXGHMeb-19" value="&lt;div style=&quot;font-size: 19px; text-align: left;&quot;&gt;&lt;div&gt;&lt;br&gt;&lt;/div&gt;&lt;div&gt;&lt;br&gt;&lt;/div&gt;&lt;div&gt;Sponsorship:&amp;nbsp;&lt;/div&gt;&lt;div&gt;&amp;nbsp;&lt;/div&gt;&lt;div&gt;1. $ 36000 ------&amp;gt; &amp;nbsp;2024/12&lt;/div&gt;&lt;div&gt;2. $ 70000 ------&amp;gt; &amp;nbsp;2025/02&lt;/div&gt;&lt;/div&gt;" style="rounded=0;whiteSpace=wrap;html=1;" parent="1" vertex="1">
          <mxGeometry x="480" y="530" width="390" height="270" as="geometry" />
        </mxCell>
        <mxCell id="4lxgX_QBaO9KYiXGHMeb-20" value="MONEY" style="shape=cube;whiteSpace=wrap;html=1;boundedLbl=1;backgroundOutline=1;darkOpacity=0.05;darkOpacity2=0.1;fontStyle=1;fontSize=17;" parent="1" vertex="1">
          <mxGeometry x="540" y="540" width="270" height="80" as="geometry" />
        </mxCell>
        <mxCell id="4lxgX_QBaO9KYiXGHMeb-21" value="&lt;font style=&quot;font-size: 16px;&quot;&gt;HUALI TECNOLOGY&lt;/font&gt;" style="shape=cube;whiteSpace=wrap;html=1;boundedLbl=1;backgroundOutline=1;darkOpacity=0.05;darkOpacity2=0.1;fontStyle=1;fontSize=17;" parent="1" vertex="1">
          <mxGeometry x="130" y="130" width="270" height="80" as="geometry" />
        </mxCell>
        <mxCell id="4lxgX_QBaO9KYiXGHMeb-22" value="&lt;font style=&quot;font-size: 16px;&quot;&gt;KKDAY INTERN&lt;/font&gt;" style="shape=cube;whiteSpace=wrap;html=1;boundedLbl=1;backgroundOutline=1;darkOpacity=0.05;darkOpacity2=0.1;fontStyle=1;fontSize=17;" parent="1" vertex="1">
          <mxGeometry x="540" y="130" width="270" height="80" as="geometry" />
        </mxCell>
        <mxCell id="B0zP1_YsFmObXtwPSUjR-1" value="SDK" style="ellipse;whiteSpace=wrap;html=1;aspect=fixed;" parent="1" vertex="1">
          <mxGeometry x="120" y="1300" width="190" height="190" as="geometry" />
        </mxCell>
        <mxCell id="B0zP1_YsFmObXtwPSUjR-2" value="" style="endArrow=classic;html=1;rounded=0;exitX=1.025;exitY=0.363;exitDx=0;exitDy=0;exitPerimeter=0;" parent="1" source="B0zP1_YsFmObXtwPSUjR-1" target="B0zP1_YsFmObXtwPSUjR-3" edge="1">
          <mxGeometry width="50" height="50" relative="1" as="geometry">
            <mxPoint x="480" y="1210" as="sourcePoint" />
            <mxPoint x="550" y="1060" as="targetPoint" />
          </mxGeometry>
        </mxCell>
        <mxCell id="B0zP1_YsFmObXtwPSUjR-3" value="Web Socket" style="rounded=0;whiteSpace=wrap;html=1;" parent="1" vertex="1">
          <mxGeometry x="500" y="1020" width="260" height="90" as="geometry" />
        </mxCell>
        <mxCell id="B0zP1_YsFmObXtwPSUjR-5" style="edgeStyle=orthogonalEdgeStyle;rounded=0;orthogonalLoop=1;jettySize=auto;html=1;" parent="1" source="B0zP1_YsFmObXtwPSUjR-4" target="B0zP1_YsFmObXtwPSUjR-1" edge="1">
          <mxGeometry relative="1" as="geometry" />
        </mxCell>
        <mxCell id="B0zP1_YsFmObXtwPSUjR-4" value="APP" style="ellipse;whiteSpace=wrap;html=1;aspect=fixed;" parent="1" vertex="1">
          <mxGeometry x="590" y="1560" width="80" height="80" as="geometry" />
        </mxCell>
        <mxCell id="B0zP1_YsFmObXtwPSUjR-6" value="Set an observer to observer another system&amp;nbsp;" style="text;html=1;align=center;verticalAlign=middle;resizable=0;points=[];autosize=1;strokeColor=none;fillColor=none;" parent="1" vertex="1">
          <mxGeometry x="220" y="1170" width="260" height="30" as="geometry" />
        </mxCell>
      </root>
    </mxGraphModel>
  </diagram>
</mxfile>
